<svg xmlns="http://www.w3.org/2000/svg" width="374" height="718" viewBox="0 0 374 718">
  <g stroke="#111111" stroke-width="1.2" stroke-linejoin="round">
    <polygon points="57.00,531.00 76.75,472.25 108.00,516.67 84.00,598.75 43.00,590.57 39.67,581.33" fill="rgba(209, 73, 73, 0.85)" />
    <polygon points="304.00,396.00 321.33,449.33 309.25,471.75 279.00,384.00 271.67,370.33 278.25,343.25 286.00,354.00" fill="rgba(46, 99, 229, 0.85)" />
    <polygon points="249.50,673.33 254.33,655.00 289.00,655.00 289.00,670.00 277.00,679.00 273.00,691.67 264.00,691.67 262.00,682.00" fill="rgba(177, 250, 75, 0.85)" />
    <polygon points="186.00,484.00 186.00,409.00 234.00,398.25 248.00,465.75" fill="rgba(219, 33, 196, 0.85)" />
    <polygon points="326.00,533.00 330.70,587.40 317.00,533.00 296.00,472.50 309.25,471.75 314.67,486.67 320.00,510.00" fill="rgba(60, 240, 210, 0.85)" />
    <polygon points="98.00,682.00 100.00,691.67 84.00,691.67 84.00,669.50" fill="rgba(209, 147, 73, 0.85)" />
    <polygon points="48.00,654.50 39.33,655.00 37.40,614.00 43.00,590.57" fill="rgba(92, 46, 229, 0.85)" />
    <polygon points="253.25,374.50 234.00,398.25 226.00,312.00 241.67,301.00 248.50,328.25 251.33,354.00" fill="rgba(82, 250, 75, 0.85)" />
    <polygon points="253.25,374.50 251.33,354.00 259.33,363.33 267.67,417.00" fill="rgba(219, 33, 95, 0.85)" />
    <polygon points="113.67,364.00 100.33,370.00 93.67,344.67 99.00,339.00 125.75,327.00 121.67,354.00" fill="rgba(60, 172, 240, 0.85)" />
    <polygon points="136.33,63.00 121.67,45.67 186.00,26.33 186.00,53.00" fill="rgba(198, 209, 73, 0.85)" />
    <polygon points="186.00,204.00 186.00,213.00 143.33,204.33 129.90,197.90 145.00,196.67" fill="rgba(191, 46, 229, 0.85)" />
    <polygon points="247.50,193.00 239.40,201.00 227.67,195.67 236.00,180.00 255.00,166.50" fill="rgba(75, 250, 162, 0.85)" />
    <polygon points="289.00,670.00 289.00,691.67 273.00,691.67 277.00,679.00" fill="rgba(219, 71, 33, 0.85)" />
    <polygon points="102.67,430.67 76.75,472.25 64.00,471.25 92.00,389.00 100.33,370.00 113.67,364.00 104.50,418.17" fill="rgba(60, 75, 240, 0.85)" />
    <polygon points="145.00,196.67 129.90,197.90 123.00,169.00 138.17,181.17" fill="rgba(124, 209, 73, 0.85)" />
    <polygon points="84.00,361.00 93.67,344.67 100.33,370.00 92.00,389.00 64.00,471.25 51.80,447.40" fill="rgba(229, 46, 169, 0.85)" />
    <polygon points="186.00,213.00 186.00,232.00 147.50,225.50 143.33,204.33" fill="rgba(75, 243, 250, 0.85)" />
    <polygon points="41.00,467.00 51.80,447.40 57.33,489.33 52.67,509.33 30.00,500.75" fill="rgba(219, 172, 33, 0.85)" />
    <polygon points="147.00,312.50 140.00,391.00 138.33,399.67 120.00,375.00 121.67,354.00 125.75,327.00 132.00,301.00" fill="rgba(142, 60, 240, 0.85)" />
    <polygon points="64.00,471.25 76.75,472.25 57.00,531.00 39.67,581.33 48.00,526.00 52.67,509.33 57.33,489.33" fill="rgba(73, 209, 95, 0.85)" />
    <polygon points="326.00,533.00 320.00,510.00 342.67,501.67 346.00,526.00 345.75,575.00 330.70,587.40" fill="rgba(229, 46, 69, 0.85)" />
    <polygon points="186.00,538.00 108.00,516.67 125.00,465.75 186.00,484.00" fill="rgba(75, 148, 250, 0.85)" />
    <polygon points="186.00,409.00 186.00,319.00 226.00,312.00 234.00,398.25" fill="rgba(165, 219, 33, 0.85)" />
    <polygon points="241.67,301.00 226.00,312.00 226.00,225.00 238.50,214.25" fill="rgba(239, 60, 240, 0.85)" />
    <polygon points="48.00,654.50 44.83,674.50 39.33,655.00" fill="rgba(73, 209, 169, 0.85)" />
    <polygon points="186.00,574.00 186.00,587.67 133.60,572.00 134.33,559.00" fill="rgba(229, 122, 46, 0.85)" />
    <polygon points="289.00,655.00 325.00,654.50 329.60,675.80 315.00,684.00 314.00,691.67 305.00,691.67 302.00,681.00 289.00,670.00" fill="rgba(96, 75, 250, 0.85)" />
    <polygon points="84.00,669.50 73.00,678.00 68.25,690.00 59.00,691.67 56.00,681.00 44.83,674.50 48.00,654.50 84.00,655.00" fill="rgba(65, 219, 33, 0.85)" />
    <polygon points="231.00,113.50 255.00,166.50 236.00,180.00 225.67,137.00" fill="rgba(240, 60, 143, 0.85)" />
    <polygon points="37.40,614.00 27.25,575.00 39.67,581.33 43.00,590.57" fill="rgba(73, 176, 209, 0.85)" />
    <polygon points="108.00,516.67 76.75,472.25 102.67,430.67 125.00,465.75" fill="rgba(229, 221, 46, 0.85)" />
    <polygon points="130.00,689.78 109.00,691.67 113.00,679.00 123.83,674.33" fill="rgba(191, 75, 250, 0.85)" />
    <polygon points="255.00,166.50 272.00,151.50 261.00,184.00 247.50,193.00" fill="rgba(33, 219, 102, 0.85)" />
    <polygon points="241.00,572.75 230.00,576.00 186.00,587.67 186.00,574.00 238.67,559.33" fill="rgba(240, 74, 60, 0.85)" />
    <polygon points="64.00,471.25 57.33,489.33 51.80,447.40" fill="rgba(73, 102, 209, 0.85)" />
    <polygon points="309.25,471.75 296.00,472.50 269.67,430.67 267.67,417.00 259.33,363.33 271.67,370.33 279.00,384.00" fill="rgba(139, 229, 46, 0.85)" />
    <polygon points="241.00,572.75 251.00,589.00 253.50,599.00 244.33,599.00" fill="rgba(250, 75, 214, 0.85)" />
    <polygon points="147.50,225.50 147.00,312.50 132.00,301.00 135.00,215.00" fill="rgba(33, 219, 203, 0.85)" />
    <polygon points="123.00,169.00 129.90,197.90 111.00,182.00 99.67,149.67 116.00,166.00" fill="rgba(240, 171, 60, 0.85)" />
    <polygon points="138.17,181.17 186.00,185.00 186.00,204.00 145.00,196.67" fill="rgba(118, 73, 209, 0.85)" />
    <polygon points="30.00,500.75 52.67,509.33 48.00,526.00 39.67,581.33 27.25,575.00 26.00,543.00" fill="rgba(46, 229, 53, 0.85)" />
    <polygon points="84.00,669.50 84.00,655.00 118.67,654.67 123.83,674.33 113.00,679.00 109.00,691.67 100.00,691.67 98.00,682.00" fill="rgba(250, 75, 120, 0.85)" />
    <polygon points="325.00,654.50 334.75,615.75 333.67,654.67" fill="rgba(33, 135, 219, 0.85)" />
    <polygon points="269.67,430.67 248.00,465.75 234.00,398.25 253.25,374.50 267.67,417.00" fill="rgba(211, 240, 60, 0.85)" />
    <polygon points="265.75,516.00 296.00,472.50 317.00,533.00 330.70,587.40 289.00,598.50" fill="rgba(191, 73, 209, 0.85)" />
    <polygon points="334.14,689.86 314.00,691.67 315.00,684.00 329.60,675.80" fill="rgba(46, 229, 152, 0.85)" />
    <polygon points="138.33,399.67 125.00,465.75 102.67,430.67 104.50,418.17 120.00,375.00" fill="rgba(250, 125, 75, 0.85)" />
    <polygon points="119.50,599.00 84.00,598.75 108.00,516.67 134.33,559.00 133.60,572.00" fill="rgba(33, 34, 219, 0.85)" />
    <polygon points="244.14,690.29 237.00,679.00 244.00,643.00 244.33,599.00 253.50,599.00 254.33,655.00 249.50,673.33" fill="rgba(113, 240, 60, 0.85)" />
    <polygon points="138.33,399.67 186.00,409.00 186.00,484.00 125.00,465.75" fill="rgba(209, 73, 153, 0.85)" />
    <polygon points="289.00,598.50 330.70,587.40 334.75,615.75 325.00,654.50 289.00,655.00" fill="rgba(46, 208, 229, 0.85)" />
    <polygon points="104.50,418.17 113.67,364.00 121.67,354.00 120.00,375.00" fill="rgba(250, 220, 75, 0.85)" />
    <polygon points="143.33,204.33 147.50,225.50 135.00,215.00 129.90,197.90" fill="rgba(133, 33, 219, 0.85)" />
    <polygon points="302.00,681.00 305.00,691.67 289.00,691.67 289.00,670.00" fill="rgba(60, 240, 104, 0.85)" />
    <polygon points="147.33,137.00 186.50,132.00 186.00,185.00 138.17,181.17" fill="rgba(209, 73, 80, 0.85)" />
    <polygon points="227.67,195.67 239.40,201.00 229.67,204.33 186.00,213.00 186.00,204.00" fill="rgba(46, 108, 229, 0.85)" />
    <polygon points="289.00,655.00 254.33,655.00 253.50,599.00 289.00,598.50" fill="rgba(186, 250, 75, 0.85)" />
    <polygon points="147.50,225.50 186.00,232.00 186.00,319.00 147.00,312.50" fill="rgba(219, 33, 205, 0.85)" />
    <polygon points="138.33,399.67 140.00,391.00 147.00,312.50 186.00,319.00 186.00,409.00" fill="rgba(60, 240, 201, 0.85)" />
    <polygon points="186.00,204.00 186.00,185.00 236.00,180.00 227.67,195.67" fill="rgba(209, 140, 73, 0.85)" />
    <polygon points="255.00,166.50 231.00,113.50 235.67,63.33 251.33,44.67 260.00,69.00 276.00,143.00 272.00,151.50" fill="rgba(83, 46, 229, 0.85)" />
    <polygon points="121.67,45.67 136.33,63.00 141.50,113.50 116.00,166.00 99.67,149.67 106.00,96.00" fill="rgba(91, 250, 75, 0.85)" />
    <polygon points="138.17,181.17 123.00,169.00 116.00,166.00 141.50,113.50 147.33,137.00" fill="rgba(219, 33, 104, 0.85)" />
    <polygon points="186.00,574.00 186.00,538.00 265.75,516.00 238.67,559.33" fill="rgba(60, 181, 240, 0.85)" />
    <polygon points="231.00,113.50 225.67,137.00 186.50,132.00 186.50,107.00" fill="rgba(205, 209, 73, 0.85)" />
    <polygon points="186.00,232.00 226.00,225.00 226.00,312.00 186.00,319.00" fill="rgba(182, 46, 229, 0.85)" />
    <polygon points="118.67,654.67 119.50,599.00 128.67,599.00 130.00,649.00 123.83,674.33" fill="rgba(75, 250, 154, 0.85)" />
    <polygon points="251.33,44.67 235.67,63.33 186.00,53.00 186.00,26.33 196.00,27.00" fill="rgba(219, 62, 33, 0.85)" />
    <polygon points="147.33,137.00 141.50,113.50 186.50,107.00 186.50,132.00" fill="rgba(60, 84, 240, 0.85)" />
    <polygon points="186.00,484.00 248.00,465.75 265.75,516.00 186.00,538.00" fill="rgba(131, 209, 73, 0.85)" />
    <polygon points="333.67,654.67 329.60,675.80 325.00,654.50" fill="rgba(229, 46, 178, 0.85)" />
    <polygon points="186.00,53.00 235.67,63.33 231.00,113.50 186.50,107.00" fill="rgba(75, 250, 248, 0.85)" />
    <polygon points="342.67,501.67 320.00,510.00 314.67,486.67 321.33,449.33" fill="rgba(219, 163, 33, 0.85)" />
    <polygon points="186.50,132.00 225.67,137.00 236.00,180.00 186.00,185.00" fill="rgba(133, 60, 240, 0.85)" />
    <polygon points="239.40,201.00 238.50,214.25 226.00,225.00 229.67,204.33" fill="rgba(73, 209, 89, 0.85)" />
    <polygon points="248.00,465.75 269.67,430.67 296.00,472.50 265.75,516.00" fill="rgba(229, 46, 78, 0.85)" />
    <polygon points="229.67,204.33 226.00,225.00 186.00,232.00 186.00,213.00" fill="rgba(75, 157, 250, 0.85)" />
    <polygon points="44.83,674.50 56.00,681.00 59.00,691.67 38.10,688.20" fill="rgba(175, 219, 33, 0.85)" />
    <polygon points="134.33,559.00 108.00,516.67 186.00,538.00 186.00,574.00" fill="rgba(230, 60, 240, 0.85)" />
    <polygon points="84.00,598.75 84.00,655.00 48.00,654.50 43.00,590.57" fill="rgba(73, 209, 162, 0.85)" />
    <polygon points="271.67,370.33 259.33,363.33 251.33,354.00 248.50,328.25 278.25,343.25" fill="rgba(229, 113, 46, 0.85)" />
    <polygon points="251.00,589.00 241.00,572.75 238.67,559.33 265.75,516.00 289.00,598.50 253.50,599.00" fill="rgba(88, 75, 250, 0.85)" />
    <polygon points="186.50,107.00 141.50,113.50 136.33,63.00 186.00,53.00" fill="rgba(74, 219, 33, 0.85)" />
    <polygon points="84.00,691.67 68.25,690.00 73.00,678.00 84.00,669.50" fill="rgba(240, 60, 152, 0.85)" />
    <polygon points="128.67,599.00 119.50,599.00 133.60,572.00" fill="rgba(73, 182, 209, 0.85)" />
    <polygon points="262.00,682.00 264.00,691.67 244.14,690.29 249.50,673.33" fill="rgba(229, 212, 46, 0.85)" />
    <polygon points="309.25,471.75 321.33,449.33 314.67,486.67" fill="rgba(182, 75, 250, 0.85)" />
    <polygon points="118.67,654.67 84.00,655.00 84.00,598.75 119.50,599.00" fill="rgba(33, 219, 93, 0.85)" />
    <polygon points="330.70,587.40 345.75,575.00 334.75,615.75" fill="rgba(240, 65, 60, 0.85)" />
  </g>
</svg>