<svg xmlns="http://www.w3.org/2000/svg" width="985" height="408" viewBox="0 0 985 408">
  <g stroke="#111111" stroke-width="1.2" stroke-linejoin="round">
    <polygon points="890.00,221.57 891.00,203.00 954.00,203.67 937.82,211.91" fill="rgba(209, 73, 73, 0.85)" />
    <polygon points="75.00,203.00 87.00,250.00 44.14,245.43 38.00,203.00" fill="rgba(46, 99, 229, 0.85)" />
    <polygon points="373.00,311.33 421.50,328.00 432.71,368.29 380.00,353.00" fill="rgba(177, 250, 75, 0.85)" />
    <polygon points="93.00,203.00 101.67,246.67 87.00,250.00 75.00,203.00" fill="rgba(219, 33, 196, 0.85)" />
    <polygon points="613.50,91.50 601.50,39.50 651.83,63.33 659.33,78.33 671.12,104.50" fill="rgba(60, 240, 210, 0.85)" />
    <polygon points="327.00,162.00 364.50,148.00 377.00,203.00 338.00,203.00" fill="rgba(209, 147, 73, 0.85)" />
    <polygon points="45.33,160.50 38.00,203.00 26.20,203.00 35.00,171.00" fill="rgba(92, 46, 229, 0.85)" />
    <polygon points="750.00,203.00 701.00,203.00 693.00,151.00 744.50,163.50" fill="rgba(82, 250, 75, 0.85)" />
    <polygon points="361.00,329.00 345.00,329.78 349.50,313.33 355.30,301.60 364.33,322.67" fill="rgba(219, 33, 95, 0.85)" />
    <polygon points="169.00,122.00 193.71,123.29 175.00,149.00 101.00,159.33 87.50,156.00 108.00,135.00 145.00,115.00 159.25,115.25" fill="rgba(60, 172, 240, 0.85)" />
    <polygon points="260.67,241.50 252.00,252.75 200.75,284.25 225.43,250.00" fill="rgba(198, 209, 73, 0.85)" />
    <polygon points="361.00,329.00 364.33,322.67 355.30,301.60 373.00,311.33 380.00,353.00" fill="rgba(191, 46, 229, 0.85)" />
    <polygon points="825.00,179.00 889.71,184.43 891.00,203.00 826.00,203.00" fill="rgba(75, 250, 162, 0.85)" />
    <polygon points="361.00,329.00 380.00,353.00 372.00,363.50 365.00,349.00" fill="rgba(219, 71, 33, 0.85)" />
    <polygon points="65.00,260.00 44.14,245.43 87.00,250.00 110.00,272.00 99.00,274.00" fill="rgba(60, 75, 240, 0.85)" />
    <polygon points="103.00,130.00 108.00,135.00 87.50,156.00 64.00,161.00 45.33,160.50 63.00,147.00" fill="rgba(124, 209, 73, 0.85)" />
    <polygon points="327.00,128.00 350.33,108.67 358.00,102.50 372.33,95.67 421.50,78.50 425.00,123.50 364.50,148.00" fill="rgba(229, 46, 169, 0.85)" />
    <polygon points="701.00,203.00 693.50,255.50 624.50,275.50 627.00,203.00" fill="rgba(75, 243, 250, 0.85)" />
    <polygon points="377.00,203.00 364.50,148.00 425.00,123.50 417.00,203.00" fill="rgba(219, 172, 33, 0.85)" />
    <polygon points="351.38,60.00 361.17,38.50 369.67,43.33 360.00,77.00 345.71,77.00 344.00,69.00" fill="rgba(142, 60, 240, 0.85)" />
    <polygon points="200.75,284.25 192.25,279.25 174.50,258.00 225.43,250.00" fill="rgba(73, 209, 95, 0.85)" />
    <polygon points="612.00,29.00 640.00,50.00 651.83,63.33 601.50,39.50 604.33,27.33" fill="rgba(229, 46, 69, 0.85)" />
    <polygon points="271.00,203.00 260.50,164.00 290.25,167.00 300.00,203.00" fill="rgba(75, 148, 250, 0.85)" />
    <polygon points="624.00,130.50 613.50,91.50 671.12,104.50 694.33,132.67 693.00,151.00" fill="rgba(165, 219, 33, 0.85)" />
    <polygon points="271.00,203.00 300.00,203.00 291.83,238.50 260.67,241.50" fill="rgba(239, 60, 240, 0.85)" />
    <polygon points="520.00,67.00 538.67,66.50 528.00,131.00 425.00,123.50 421.50,78.50 459.25,73.25" fill="rgba(73, 209, 169, 0.85)" />
    <polygon points="345.71,77.00 360.00,77.00 363.67,83.33 358.00,102.50 350.75,94.25 345.00,88.00" fill="rgba(229, 122, 46, 0.85)" />
    <polygon points="445.00,363.00 432.71,368.29 421.50,328.00 460.25,333.25 450.00,358.00" fill="rgba(96, 75, 250, 0.85)" />
    <polygon points="369.67,43.33 380.00,54.17 360.00,77.00" fill="rgba(65, 219, 33, 0.85)" />
    <polygon points="260.50,164.00 251.67,153.33 265.80,151.60 290.25,167.00" fill="rgba(240, 60, 143, 0.85)" />
    <polygon points="460.25,333.25 421.50,328.00 425.00,282.50 528.00,275.00 530.50,292.50 539.50,339.00" fill="rgba(73, 176, 209, 0.85)" />
    <polygon points="614.00,315.50 671.86,299.43 659.67,329.00 652.67,341.33 649.00,350.00 602.00,366.50" fill="rgba(229, 221, 46, 0.85)" />
    <polygon points="425.00,282.50 417.00,203.00 523.00,203.00 528.00,275.00" fill="rgba(191, 75, 250, 0.85)" />
    <polygon points="624.00,130.50 627.00,203.00 523.00,203.00 528.00,131.00" fill="rgba(33, 219, 102, 0.85)" />
    <polygon points="87.50,156.00 75.00,203.00 38.00,203.00 45.33,160.50 64.00,161.00" fill="rgba(240, 74, 60, 0.85)" />
    <polygon points="528.00,275.00 523.00,203.00 627.00,203.00 624.50,275.50" fill="rgba(73, 102, 209, 0.85)" />
    <polygon points="101.67,246.67 174.50,258.00 192.25,279.25 176.00,282.00 158.00,291.20 110.00,272.00 87.00,250.00" fill="rgba(139, 229, 46, 0.85)" />
    <polygon points="825.00,179.00 826.00,203.00 750.00,203.00 744.50,163.50" fill="rgba(250, 75, 214, 0.85)" />
    <polygon points="601.50,39.50 613.50,91.50 548.67,69.00 557.38,47.12" fill="rgba(33, 219, 203, 0.85)" />
    <polygon points="889.71,184.43 939.92,194.42 954.00,203.67 891.00,203.00" fill="rgba(240, 171, 60, 0.85)" />
    <polygon points="364.25,258.00 329.50,277.50 294.50,260.50 325.60,244.20" fill="rgba(118, 73, 209, 0.85)" />
    <polygon points="449.00,47.00 459.25,73.25 421.50,78.50 434.00,38.75" fill="rgba(46, 229, 53, 0.85)" />
    <polygon points="420.00,29.00 434.00,38.75 380.00,54.17 369.67,43.33 388.00,36.00 405.00,29.50" fill="rgba(250, 75, 120, 0.85)" />
    <polygon points="701.00,203.00 750.00,203.00 744.50,242.50 693.50,255.50" fill="rgba(33, 135, 219, 0.85)" />
    <polygon points="200.75,284.25 190.00,290.00 158.00,291.20 176.00,282.00 192.25,279.25" fill="rgba(211, 240, 60, 0.85)" />
    <polygon points="657.00,50.67 664.00,60.00 669.75,76.25 659.33,78.33 651.83,63.33" fill="rgba(191, 73, 209, 0.85)" />
    <polygon points="557.57,359.43 548.67,336.33 614.00,315.50 602.00,366.50" fill="rgba(46, 229, 152, 0.85)" />
    <polygon points="44.14,245.43 26.20,203.00 38.00,203.00" fill="rgba(250, 125, 75, 0.85)" />
    <polygon points="225.67,157.00 260.50,164.00 271.00,203.00 234.00,203.00" fill="rgba(33, 34, 219, 0.85)" />
    <polygon points="175.00,149.00 225.67,157.00 234.00,203.00 164.00,203.00" fill="rgba(113, 240, 60, 0.85)" />
    <polygon points="649.00,350.00 659.33,354.33 649.00,365.00 628.00,375.00 607.43,378.00" fill="rgba(209, 73, 153, 0.85)" />
    <polygon points="352.00,364.00 353.50,353.50 349.50,340.75 345.00,329.78 361.00,329.00 365.00,349.00 372.00,363.50 361.00,368.00" fill="rgba(46, 208, 229, 0.85)" />
    <polygon points="744.50,163.50 742.00,149.00 823.33,167.33 825.00,179.00" fill="rgba(250, 220, 75, 0.85)" />
    <polygon points="380.00,353.00 432.71,368.29 415.00,378.00 404.25,376.50 372.00,363.50" fill="rgba(133, 33, 219, 0.85)" />
    <polygon points="380.00,375.00 361.00,368.00 372.00,363.50 404.25,376.50" fill="rgba(60, 240, 104, 0.85)" />
    <polygon points="652.67,341.33 659.67,329.00 670.33,331.33 659.33,354.33 649.00,350.00" fill="rgba(209, 73, 80, 0.85)" />
    <polygon points="693.00,151.00 694.33,132.67 742.00,149.00 744.50,163.50" fill="rgba(46, 108, 229, 0.85)" />
    <polygon points="417.00,203.00 425.00,282.50 364.25,258.00 377.00,203.00" fill="rgba(186, 250, 75, 0.85)" />
    <polygon points="372.33,95.67 358.00,102.50 363.67,83.33 360.00,77.00 380.00,54.17" fill="rgba(219, 33, 205, 0.85)" />
    <polygon points="557.38,47.12 548.67,69.00 538.67,66.50" fill="rgba(60, 240, 201, 0.85)" />
    <polygon points="826.00,203.00 825.00,227.00 744.50,242.50 750.00,203.00" fill="rgba(209, 140, 73, 0.85)" />
    <polygon points="628.00,31.00 646.00,40.00 657.00,50.67 651.83,63.33 640.00,50.00 612.00,29.00" fill="rgba(83, 46, 229, 0.85)" />
    <polygon points="604.33,27.33 601.50,39.50 557.38,47.12 579.00,31.00" fill="rgba(91, 250, 75, 0.85)" />
    <polygon points="260.50,164.00 225.67,157.00 203.33,123.67 251.67,153.33" fill="rgba(219, 33, 104, 0.85)" />
    <polygon points="607.43,378.00 602.00,366.50 649.00,350.00" fill="rgba(60, 181, 240, 0.85)" />
    <polygon points="826.00,203.00 891.00,203.00 890.00,221.57 825.00,227.00" fill="rgba(205, 209, 73, 0.85)" />
    <polygon points="361.17,38.50 381.00,30.00 388.00,36.00 369.67,43.33" fill="rgba(182, 46, 229, 0.85)" />
    <polygon points="671.12,104.50 659.33,78.33 669.75,76.25 675.00,87.00" fill="rgba(75, 250, 154, 0.85)" />
    <polygon points="291.83,238.50 266.25,253.75 252.00,252.75 260.67,241.50" fill="rgba(219, 62, 33, 0.85)" />
    <polygon points="266.25,253.75 291.83,238.50 325.60,244.20 294.50,260.50" fill="rgba(60, 84, 240, 0.85)" />
    <polygon points="627.00,203.00 624.00,130.50 693.00,151.00 701.00,203.00" fill="rgba(131, 209, 73, 0.85)" />
    <polygon points="417.00,203.00 425.00,123.50 528.00,131.00 523.00,203.00" fill="rgba(229, 46, 178, 0.85)" />
    <polygon points="659.67,329.00 671.86,299.43 675.00,321.00 670.33,331.33" fill="rgba(75, 250, 248, 0.85)" />
    <polygon points="325.60,244.20 338.00,203.00 377.00,203.00 364.25,258.00" fill="rgba(219, 163, 33, 0.85)" />
    <polygon points="361.17,38.50 351.38,60.00 352.00,42.00" fill="rgba(133, 60, 240, 0.85)" />
    <polygon points="823.00,238.67 741.33,257.67 744.50,242.50 825.00,227.00" fill="rgba(73, 209, 89, 0.85)" />
    <polygon points="225.43,250.00 234.00,203.00 271.00,203.00 260.67,241.50" fill="rgba(229, 46, 78, 0.85)" />
    <polygon points="434.00,38.75 421.50,78.50 372.33,95.67 380.00,54.17" fill="rgba(75, 157, 250, 0.85)" />
    <polygon points="358.00,102.50 350.33,108.67 350.75,94.25" fill="rgba(175, 219, 33, 0.85)" />
    <polygon points="175.00,149.00 164.00,203.00 93.00,203.00 101.00,159.33" fill="rgba(230, 60, 240, 0.85)" />
    <polygon points="225.43,250.00 174.50,258.00 164.00,203.00 234.00,203.00" fill="rgba(73, 209, 162, 0.85)" />
    <polygon points="101.00,159.33 93.00,203.00 75.00,203.00 87.50,156.00" fill="rgba(229, 113, 46, 0.85)" />
    <polygon points="421.50,328.00 373.00,311.33 355.30,301.60 329.50,277.50 364.25,258.00 425.00,282.50" fill="rgba(88, 75, 250, 0.85)" />
    <polygon points="174.50,258.00 101.67,246.67 93.00,203.00 164.00,203.00" fill="rgba(74, 219, 33, 0.85)" />
    <polygon points="582.00,376.00 557.57,359.43 602.00,366.50 607.43,378.00 593.00,377.00" fill="rgba(240, 60, 152, 0.85)" />
    <polygon points="693.50,255.50 744.50,242.50 741.33,257.67 694.33,272.33" fill="rgba(73, 182, 209, 0.85)" />
    <polygon points="693.50,255.50 694.33,272.33 671.86,299.43 614.00,315.50 624.50,275.50" fill="rgba(229, 212, 46, 0.85)" />
    <polygon points="327.00,162.00 294.50,145.50 327.00,128.00 364.50,148.00" fill="rgba(182, 75, 250, 0.85)" />
    <polygon points="890.00,221.57 823.00,238.67 825.00,227.00" fill="rgba(33, 219, 93, 0.85)" />
    <polygon points="528.00,275.00 624.50,275.50 614.00,315.50 548.67,336.33 539.50,339.00 530.50,292.50" fill="rgba(240, 65, 60, 0.85)" />
    <polygon points="548.67,69.00 613.50,91.50 624.00,130.50 528.00,131.00 538.67,66.50" fill="rgba(73, 109, 209, 0.85)" />
    <polygon points="294.50,145.50 327.00,162.00 290.25,167.00 265.80,151.60" fill="rgba(148, 229, 46, 0.85)" />
    <polygon points="557.57,359.43 539.50,339.00 548.67,336.33" fill="rgba(250, 75, 223, 0.85)" />
    <polygon points="823.33,167.33 889.71,184.43 825.00,179.00" fill="rgba(33, 219, 194, 0.85)" />
    <polygon points="338.00,203.00 325.60,244.20 291.83,238.50 300.00,203.00" fill="rgba(240, 163, 60, 0.85)" />
    <polygon points="225.67,157.00 175.00,149.00 193.71,123.29 203.33,123.67" fill="rgba(111, 73, 209, 0.85)" />
    <polygon points="338.00,203.00 300.00,203.00 290.25,167.00 327.00,162.00" fill="rgba(48, 229, 46, 0.85)" />
  </g>
</svg>