<svg xmlns="http://www.w3.org/2000/svg" width="2816" height="1536" viewBox="0 0 2816 1536">
<g fill="none" stroke="#000000" stroke-width="1">
<path d="M1421.00,784.62 L1420.00,785.00 L1417.00,753.00 L1417.00,866.00 L1454.74,873.23 L1464.00,875.00 L1457.99,874.10 L1417.00,868.00 L1419.62,1204.04 L1421.00,1150.00 L1430.71,1369.35 L1475.06,1316.13 L1512.07,1253.58 L1538.00,1180.00 L1538.07,1180.09 L1534.00,1158.00 L1581.13,979.95 L1608.00,841.00 L1506.00,802.00 L1508.73,772.90 L1474.00,764.00 L1476.38,764.00 L1422.00,754.00 L1441.00,777.00 L1421.00,786.00 Z"/>
<path d="M1414.99,1384.99 L1409.01,753.74 L1399.97,754.85 L1372.34,760.51 L1355.00,766.00 L1323.03,783.35 L1322.44,786.02 L1322.00,794.00 L1320.48,794.86 L1318.00,806.00 L1256.51,839.85 L1241.04,917.85 L1242.00,924.00 L1264.00,919.00 L1246.00,944.00 L1267.44,1051.63 L1295.12,1184.40 L1298.00,1179.00 L1315.89,1236.99 L1364.49,1320.71 Z"/>
<path d="M1505.00,219.00 L1421.00,203.00 L1421.00,747.00 L1446.00,753.00 L1421.00,753.00 L1421.00,771.00 L1422.00,754.00 L1509.00,764.00 L1510.00,747.00 L1510.13,747.55 L1511.00,735.00 L1524.00,804.00 L1553.00,812.00 L1551.06,786.20 L1549.00,779.00 L1544.39,697.70 L1528.00,480.00 L1540.28,288.76 L1537.77,281.81 L1531.54,268.03 L1536.00,282.00 L1523.48,250.22 L1509.43,219.15 L1506.41,235.77 L1505.89,242.18 L1497.81,342.32 L1494.33,385.53 L1493.00,402.00 L1494.23,383.20 L1497.62,331.50 Z"/>
<path d="M1349.12,765.26 L1372.34,760.51 L1384.01,756.81 L1350.00,761.00 L1415.00,747.00 L1414.05,337.16 L1402.87,327.34 L1400.00,330.00 L1402.41,326.93 L1391.86,317.66 L1388.00,318.00 L1386.66,313.10 L1382.00,309.00 L1384.12,303.78 L1382.00,296.00 L1394.00,279.00 L1394.16,279.06 L1395.00,277.00 L1414.02,285.56 L1414.13,275.84 L1415.00,203.00 L1396.79,201.86 L1382.78,203.30 L1382.16,206.41 L1391.00,206.00 L1381.82,208.13 L1351.46,361.18 L1361.00,358.00 L1350.86,370.04 L1356.00,419.00 L1350.44,495.56 L1354.00,551.00 L1343.00,597.90 L1331.00,763.00 Z"/>
<path d="M1520.70,1241.35 L1501.00,1285.00 L1472.07,1322.08 L1442.00,1372.00 L1504.00,1357.00 L1508.99,1352.75 L1501.00,1352.00 L1578.00,1293.00 L1623.94,1282.28 L1662.23,1272.51 L1662.00,1268.00 L1677.00,1269.00 L1685.44,1466.01 L1713.32,1329.17 L1712.00,1334.00 L1717.32,1176.26 L1717.99,1106.52 L1688.41,1121.47 L1544.70,1201.50 Z"/>
<path d="M1581.13,979.95 L1541.58,1184.48 L1547.98,1192.47 L1680.08,1125.69 L1687.00,1122.00 L1683.28,1124.07 L1688.41,1121.47 L1718.00,1105.00 L1717.99,1106.52 L1719.71,1105.65 L1719.82,1102.19 L1616.29,855.07 L1600.00,925.00 L1602.43,899.49 Z"/>
<path d="M1169.30,1279.47 L1169.04,1279.42 L1166.81,1291.63 L1164.00,1478.00 L1280.00,1490.00 L1294.00,1352.00 L1320.00,1347.00 L1255.00,1297.00 L1169.00,1281.00 Z"/>
<path d="M1555.00,1490.00 L1673.00,1482.00 L1662.34,1274.63 L1547.75,1327.83 L1529.37,1344.74 L1531.15,1354.83 L1533.00,1355.00 L1533.00,1365.33 Z"/>
<path d="M1354.66,1308.52 L1327.00,1273.00 L1306.46,1221.66 L1295.00,1201.00 L1195.10,1149.44 L1171.58,1268.01 L1277.00,1298.00 L1412.00,1400.00 L1411.28,1399.70 L1413.00,1401.00 L1481.00,1370.00 L1419.74,1386.46 L1417.00,1389.00 L1415.27,1387.66 L1414.00,1388.00 L1396.00,1375.00 L1393.62,1370.90 L1386.00,1365.00 Z"/>
<path d="M1237.34,905.73 L1229.00,855.00 L1231.02,853.89 L1229.15,841.94 L1229.00,842.00 L1120.56,1096.93 L1194.35,1140.95 Z"/>
<path d="M1153.31,1467.94 L1160.89,1268.89 L1161.00,1265.00 L1171.15,1267.89 L1193.00,1148.35 L1140.00,1121.00 L1193.26,1146.92 L1194.29,1141.29 L1119.05,1101.56 L1120.88,1291.21 L1121.00,1295.00 Z"/>
<path d="M1267.44,1051.63 L1245.00,944.00 L1264.00,919.00 L1241.00,928.00 L1240.10,922.55 L1196.52,1142.25 L1199.70,1144.15 L1290.90,1192.31 L1294.22,1186.08 Z"/>
<path d="M1421.00,61.00 L1421.00,196.00 L1475.78,204.98 L1509.00,208.00 L1525.19,141.89 L1530.82,109.05 Z"/>
<path d="M1119.00,1096.00 L1119.90,1096.54 L1229.00,841.00 L1229.15,841.94 L1250.54,833.49 L1251.85,826.33 L1223.00,841.00 L1111.00,1104.00 L1119.00,1315.00 L1149.00,1479.00 L1172.00,1495.00 L1284.00,1494.00 L1303.00,1447.00 L1302.00,1354.00 L1411.28,1399.70 L1277.00,1298.00 L1171.41,1268.87 L1169.30,1279.47 L1255.00,1297.00 L1320.00,1347.00 L1294.00,1352.00 L1280.00,1490.00 L1164.00,1478.00 L1164.00,1307.00 L1166.81,1291.63 L1167.00,1279.00 L1169.04,1279.42 L1170.99,1268.76 L1161.00,1266.00 L1160.89,1268.89 L1155.00,1477.00 L1153.31,1467.94 L1153.00,1476.00 L1121.00,1304.00 L1120.88,1291.21 L1115.00,1110.00 L1118.68,1101.36 L1118.00,1101.00 L1119.02,1098.60 Z"/>
<path d="M1320.48,794.86 L1322.44,786.02 L1322.57,783.60 L1320.00,785.00 L1325.32,733.85 L1343.72,400.21 L1300.62,617.48 L1290.00,812.00 Z"/>
<path d="M1389.85,71.29 L1355.49,85.35 L1306.57,113.37 L1327.00,209.00 L1365.40,205.07 Z"/>
<path d="M1306.07,443.33 L1309.00,464.00 L1305.13,534.80 L1340.36,342.06 L1327.34,233.86 L1296.00,288.00 L1300.32,276.74 L1292.29,290.51 L1308.00,399.00 Z"/>
<path d="M1685.44,1466.01 L1683.00,1478.00 L1676.00,1269.00 L1662.23,1272.51 L1662.27,1273.34 L1668.00,1272.00 L1673.00,1482.00 L1555.00,1490.00 L1533.00,1372.67 L1533.00,1450.00 L1555.00,1494.00 L1668.00,1494.00 L1686.00,1479.00 Z"/>
<path d="M1476.38,764.00 L1509.00,770.00 L1508.73,772.90 L1513.00,774.00 L1506.00,802.00 L1608.00,841.00 L1602.43,899.49 L1615.00,852.00 L1616.29,855.07 L1617.00,852.00 L1720.00,1097.00 L1719.82,1102.19 L1721.00,1105.00 L1719.71,1105.65 L1717.32,1176.26 L1716.00,1316.00 L1713.32,1329.17 L1721.00,1301.00 L1723.00,1094.00 L1614.00,840.00 L1559.00,814.00 L1551.16,786.56 L1553.00,812.00 L1524.00,804.00 L1510.13,747.55 L1509.00,764.00 Z"/>
<path d="M1419.62,1204.04 L1417.00,868.00 L1417.00,1182.00 L1415.00,753.00 L1409.01,753.74 L1414.99,1384.99 L1415.00,1385.00 Z"/>
<path d="M1350.46,366.23 L1349.98,361.67 L1343.00,364.00 L1340.36,342.06 L1305.13,534.80 L1300.62,617.48 L1343.72,400.21 L1345.00,377.00 L1349.35,371.84 Z"/>
</g>
</svg>
